<svg xmlns="http://www.w3.org/2000/svg" width="430" height="430" style="width:100%;height:100%;transform:translate3d(0,0,0);content-visibility:visible" viewBox="0 0 430 430"><defs><clipPath id="a"><path d="M0 0h430v430H0z"/></clipPath><clipPath id="e"><path d="M0 0h430v430H0z"/></clipPath><clipPath id="d"><path d="M0 0h430v430H0z"/></clipPath><clipPath id="c"><path d="M0 0h430v430H0z"/></clipPath><clipPath id="b"><path d="M0 0h430v430H0z"/></clipPath></defs><g clip-path="url(#a)"><g clip-path="url(#b)" style="display:none"><g style="display:none"><path class="secondary"/><path class="secondary" style="mix-blend-mode:multiply"/><path fill="none" class="primary"/></g><g style="display:none"><path class="secondary"/><path class="secondary" style="mix-blend-mode:multiply"/><path fill="none" class="primary"/></g></g><g clip-path="url(#c)" style="display:none"><g style="display:none"><path class="secondary"/><path class="secondary" style="mix-blend-mode:multiply"/><path fill="none" class="primary"/></g><g style="display:none"><path class="secondary"/><path class="secondary" style="mix-blend-mode:multiply"/><path fill="none" class="primary"/></g></g><g clip-path="url(#d)" style="display:block" transform="rotate(90 215 215)"><g style="display:block"><path fill="#4BB3FD" d="M265 160.001a3 3 0 0 1-3 3H28a3 3 0 0 0-3 3v99a3 3 0 0 0 3 3h234a3 3 0 0 1 3 3v67.62c0 2.619 3.122 3.981 5.042 2.199l132.591-123.121a3 3 0 0 0 0-4.396L270.042 90.182c-1.92-1.782-5.042-.42-5.042 2.199v67.62z" class="secondary"/><path fill="#4BB3FD" d="M-189.296 49.499v-49.5h378.592c0 .801-.318 1.601-.954 2.194l-.005.005-132.591 123.12c-1.92 1.782-5.042.421-5.042-2.198V52.5l-237-.001h-.008a3 3 0 0 1-2.992-3z" class="secondary" opacity=".5" style="mix-blend-mode:multiply" transform="translate(214.296 215.501)"/><path fill="none" stroke="#121331" stroke-linecap="round" stroke-linejoin="round" stroke-width="7" d="M265 160.001a3 3 0 0 1-3 3H28a3 3 0 0 0-3 3v99a3 3 0 0 0 3 3h234a3 3 0 0 1 3 3v67.62c0 2.619 3.122 3.981 5.042 2.199l132.591-123.121a3 3 0 0 0 0-4.396L270.042 90.182c-1.92-1.782-5.042-.42-5.042 2.199v67.62z" class="primary"/></g></g><g clip-path="url(#e)" style="display:none"><path class="secondary"/><path class="secondary" style="mix-blend-mode:multiply"/><path fill="none" class="primary"/></g></g></svg>